<svg xmlns="http://www.w3.org/2000/svg"  viewBox="0 0 64 64" width="64px" height="64px"><linearGradient id="p8X3MQ0E~w_SesX1ubVlRa" x1="32" x2="32" y1="50.375" y2="13" gradientTransform="matrix(1 0 0 -1 0 66)" gradientUnits="userSpaceOnUse"><stop offset="0" stop-color="#1a6dff"/><stop offset="1" stop-color="#c822ff"/></linearGradient><path fill="url(#p8X3MQ0E~w_SesX1ubVlRa)" d="M16,15.625h32v34.404C48,51.67,46.67,53,45.029,53H18.971C17.33,53,16,51.67,16,50.029V15.625	z"/><linearGradient id="p8X3MQ0E~w_SesX1ubVlRb" x1="32" x2="32" y1="55" y2="28.155" gradientTransform="matrix(1 0 0 -1 0 66)" gradientUnits="userSpaceOnUse"><stop offset=".039" stop-color="#6dc7ff"/><stop offset="1" stop-color="#e6abff"/></linearGradient><path fill="url(#p8X3MQ0E~w_SesX1ubVlRb)" d="M48,15.163v22.682c-5.888-4.963-17.664-13.131-32-13.764v-8.918	C16,12.865,17.892,11,20.224,11h23.552C46.108,11,48,12.865,48,15.163z"/><linearGradient id="p8X3MQ0E~w_SesX1ubVlRc" x1="28.374" x2="28.374" y1="35.9" y2="18.197" gradientTransform="matrix(1 0 0 -1 0 66)" gradientUnits="userSpaceOnUse"><stop offset=".039" stop-color="#6dc7ff"/><stop offset="1" stop-color="#e6abff"/></linearGradient><path fill="url(#p8X3MQ0E~w_SesX1ubVlRc)" d="M34.255,40.184c-0.03,0.031-0.037,0.077-0.022,0.115l1.283,3.932 c0.194,0.605,0.045,1.257-0.395,1.709c-0.44,0.444-1.082,0.598-1.672,0.391l-3.806-1.341c-0.045-0.015-0.09-0.008-0.119,0.015 l-3.239,2.468c-0.284,0.215-0.619,0.33-0.963,0.33c-0.254,0-0.507-0.061-0.739-0.192c-0.56-0.291-0.895-0.866-0.881-1.502 l0.06-4.139c0-0.046-0.015-0.084-0.052-0.115l-3.283-2.399c-0.507-0.368-0.754-0.989-0.657-1.617 c0.097-0.628,0.53-1.142,1.127-1.326l3.85-1.219c0.037-0.008,0.067-0.046,0.082-0.084l1.209-3.947 c0.187-0.605,0.687-1.05,1.299-1.142c0.619-0.1,1.216,0.161,1.575,0.682l2.313,3.388c0.03,0.038,0.045,0.061,0.112,0.061 l4.022-0.038h0.022c0.612,0,1.164,0.345,1.44,0.912c0.284,0.567,0.224,1.242-0.149,1.747L34.255,40.184z"/><path fill="none" stroke="#fff" stroke-miterlimit="10" stroke-width="2" d="M34.255,40.184 c-0.03,0.031-0.037,0.077-0.022,0.115l1.283,3.932c0.194,0.605,0.045,1.257-0.395,1.709c-0.44,0.444-1.082,0.598-1.672,0.391 l-3.806-1.341c-0.045-0.015-0.09-0.008-0.119,0.015l-3.239,2.468c-0.284,0.215-0.619,0.33-0.963,0.33 c-0.254,0-0.507-0.061-0.739-0.192c-0.56-0.291-0.895-0.866-0.881-1.502l0.06-4.139c0-0.046-0.015-0.084-0.052-0.115l-3.283-2.399 c-0.507-0.368-0.754-0.989-0.657-1.617c0.097-0.628,0.53-1.142,1.127-1.326l3.85-1.219c0.037-0.008,0.067-0.046,0.082-0.084 l1.209-3.947c0.187-0.605,0.687-1.05,1.299-1.142c0.619-0.1,1.216,0.161,1.575,0.682l2.313,3.388 c0.03,0.038,0.045,0.061,0.112,0.061l4.022-0.038h0.022c0.612,0,1.164,0.345,1.44,0.912c0.284,0.567,0.224,1.242-0.149,1.747 L34.255,40.184z"/><g><linearGradient id="p8X3MQ0E~w_SesX1ubVlRd" x1="32.001" x2="32.001" y1="59" y2="9" gradientTransform="matrix(1 0 0 -1 0 66)" gradientUnits="userSpaceOnUse"><stop offset="0" stop-color="#1a6dff"/><stop offset="1" stop-color="#c822ff"/></linearGradient><path fill="url(#p8X3MQ0E~w_SesX1ubVlRd)" d="M45.938,57H18.063c-3.309,0-6-2.679-6-5.971V12.971c0-3.292,2.691-5.971,6-5.971h27.875 c3.309,0,6,2.679,6,5.971v38.058C51.938,54.321,49.246,57,45.938,57z M18.063,9c-2.206,0-4,1.781-4,3.971v38.058 c0,2.19,1.794,3.971,4,3.971h27.875c2.206,0,4-1.781,4-3.971V12.971c0-2.19-1.794-3.971-4-3.971H18.063z"/></g><g><linearGradient id="p8X3MQ0E~w_SesX1ubVlRe" x1="38.124" x2="38.124" y1="50.451" y2="38.696" gradientTransform="matrix(1 0 0 -1 0 66)" gradientUnits="userSpaceOnUse"><stop offset="0" stop-color="#1a6dff"/><stop offset="1" stop-color="#c822ff"/></linearGradient><path fill="url(#p8X3MQ0E~w_SesX1ubVlRe)" d="M40.418,24.137l-0.552,2.453c-0.166,0.739-1.107,0.966-1.593,0.385l-1.611-1.93 c-0.193-0.231-0.487-0.352-0.786-0.324l-2.503,0.233c-0.754,0.07-1.261-0.755-0.858-1.396l1.338-2.129 c0.16-0.255,0.184-0.572,0.065-0.848l-0.995-2.309c-0.3-0.695,0.328-1.433,1.062-1.248l2.438,0.614 c0.292,0.073,0.601-0.001,0.826-0.2l1.888-1.66c0.569-0.5,1.464-0.131,1.515,0.625l0.169,2.508c0.02,0.3,0.187,0.571,0.445,0.724 l2.162,1.283c0.651,0.386,0.577,1.352-0.126,1.634L40.97,23.49C40.691,23.602,40.484,23.844,40.418,24.137z"/><path fill="none" stroke="#fff" stroke-miterlimit="10" stroke-width="2" d="M40.418,24.137l-0.552,2.453 c-0.166,0.739-1.107,0.966-1.593,0.385l-1.611-1.93c-0.193-0.231-0.487-0.352-0.786-0.324l-2.503,0.233 c-0.754,0.07-1.261-0.755-0.858-1.396l1.338-2.129c0.16-0.255,0.184-0.572,0.065-0.848l-0.995-2.309 c-0.3-0.695,0.328-1.433,1.062-1.248l2.438,0.614c0.292,0.073,0.601-0.001,0.826-0.2l1.888-1.66c0.569-0.5,1.464-0.131,1.515,0.625 l0.169,2.508c0.02,0.3,0.187,0.571,0.445,0.724l2.162,1.283c0.651,0.386,0.577,1.352-0.126,1.634L40.97,23.49 C40.691,23.602,40.484,23.844,40.418,24.137z"/></g></svg>